<svg width="181" height="180" viewBox="0 0 181 180" fill="none" xmlns="http://www.w3.org/2000/svg">
<g clip-path="url(#clip0_8368_17643)">
<path d="M174.275 138.193C182.575 129.915 182.575 116.473 174.275 108.231C165.974 99.9536 152.496 99.9536 144.232 108.231L132.957 119.476C129.835 122.589 124.73 122.589 121.608 119.476L101.481 99.3675C100.233 98.1222 98.5433 97.4262 96.8171 97.4262C95.0542 97.4262 93.3647 98.1222 92.1527 99.3675C86.6436 104.862 79.3349 107.902 71.512 107.902C63.6891 107.902 56.3804 104.862 50.8713 99.3675L32.6547 81.2002L73.8993 40.0674L92.116 58.2347C97.1843 63.2893 100.196 69.9922 100.6 77.0979C100.82 80.6142 103.722 83.3246 107.211 83.3246C107.321 83.3246 107.468 83.3246 107.615 83.3246C111.251 83.1049 114.042 79.9915 113.822 76.3654C113.234 65.9998 108.827 56.2568 101.481 48.9313L83.2647 30.764L85.2847 28.7495C87.8556 26.1856 87.8556 22.0101 85.2847 19.4095C82.7138 16.8456 78.5269 16.8456 75.9193 19.4095L62.9546 32.339L40.4776 9.92295C37.9067 7.35902 33.7197 7.35902 31.1121 9.92295C28.5412 12.4869 28.5412 16.6624 31.1121 19.263L53.5892 41.6791L34.2707 60.9452L11.7936 38.5291C9.22271 35.9652 5.03581 35.9652 2.42818 38.5291C-0.142726 41.093 -0.142726 45.2686 2.42818 47.8691L24.942 70.2852L11.9773 83.2147C9.40635 85.7787 9.40635 89.9542 11.9773 92.5548C13.2627 93.8367 14.9522 94.496 16.6416 94.496C18.3311 94.496 20.0205 93.8367 21.306 92.5548L23.326 90.5403L41.5426 108.708C49.5492 116.692 60.2001 121.088 71.512 121.088C80.5837 121.088 89.2513 118.267 96.4498 112.993L112.279 128.779C116.429 132.918 121.865 134.97 127.301 134.97C132.736 134.97 138.172 132.918 142.322 128.779L153.597 117.535C156.719 114.421 161.824 114.421 164.946 117.535C168.068 120.648 168.068 125.739 164.946 128.853L153.671 140.097C149.668 144.09 147.464 149.401 147.464 155.078C147.464 160.755 149.668 166.066 153.671 170.059C154.956 171.341 156.646 172 158.335 172C160.025 172 161.714 171.341 162.999 170.059C165.57 167.495 165.57 163.319 162.999 160.719C161.494 159.217 160.649 157.202 160.649 155.078C160.649 152.954 161.494 150.939 162.999 149.437L174.275 138.193Z" fill="#AE1C3F"/>
</g>
<defs>
<clipPath id="clip0_8368_17643">
<rect width="180" height="180" fill="white" transform="translate(0.5)"/>
</clipPath>
</defs>
</svg>
