<svg width="43" height="43" viewBox="0 0 43 43" fill="none" xmlns="http://www.w3.org/2000/svg">
<g id="Icon" clip-path="url(#clip0_8561_17518)">
<path id="Vector" d="M2.24976 35.5002V25.0002H12.7498" stroke="white" stroke-width="4.5" stroke-linecap="round" stroke-linejoin="round"/>
<path id="Vector_2" d="M40.7502 7.49976V17.9998H30.2502" stroke="white" stroke-width="6" stroke-linecap="round" stroke-linejoin="round"/>
<path id="Vector_3" d="M6.64226 16.2503C7.5298 13.7421 9.03824 11.4997 11.0268 9.73224C13.0154 7.96476 15.4193 6.72984 18.0143 6.14271C20.6092 5.55557 23.3106 5.63535 25.8663 6.37461C28.4221 7.11387 30.7489 8.4885 32.6298 10.3703L40.7498 18.0003M2.24976 25.0003L10.3698 32.6303C12.2506 34.512 14.5774 35.8866 17.1332 36.6259C19.6889 37.3652 22.3903 37.4449 24.9853 36.8578C27.5802 36.2707 29.9841 35.0357 31.9727 33.2683C33.9613 31.5008 35.4697 29.2584 36.3573 26.7503" stroke="white" stroke-width="4.5" stroke-linecap="round" stroke-linejoin="round"/>
</g>
<defs>
<clipPath id="clip0_8561_17518">
<rect width="42" height="42" fill="white" transform="translate(0.5 0.5)"/>
</clipPath>
</defs>
</svg>
