<svg width="64" height="64" viewBox="0 0 64 64" fill="none" xmlns="http://www.w3.org/2000/svg">
<g id="Tabs/User">
<path id="Vector" d="M13.3333 50.964C13.3333 44.5291 17.8595 39.0479 24.0107 38.0338L24.5648 37.9424C29.4904 37.1304 34.5095 37.1304 39.4351 37.9424L39.9891 38.0338C46.1404 39.0479 50.6666 44.5291 50.6666 50.964C50.6666 53.7453 48.484 56 45.7916 56H18.2083C15.5159 56 13.3333 53.7453 13.3333 50.964Z" stroke="#00783A" strokeWidth="4.5"/>
<path id="Vector_2" d="M42.8891 18.5C42.8891 24.299 38.014 29 32.0002 29C25.9865 29 21.1113 24.299 21.1113 18.5C21.1113 12.701 25.9865 8 32.0002 8C38.014 8 42.8891 12.701 42.8891 18.5Z" stroke="#AB1F24" strokeWidth="4.5"/>
</g>
</svg>
